<?xml version="1.0" encoding="UTF-8"?>
<svg xmlns="http://www.w3.org/2000/svg" xmlns:xlink="http://www.w3.org/1999/xlink" width="362" zoomAndPan="magnify" viewBox="0 0 271.5 90.749999" height="121" preserveAspectRatio="xMidYMid meet" version="1.0">
  <defs>
    <g></g>
    <clipPath id="eca87dc93f">
      <path d="M 0.125 6 L 256 6 L 256 87 L 0.125 87 Z M 0.125 6 " clip-rule="nonzero"></path>
    </clipPath>
    <clipPath id="e672a72950">
      <path d="M 4.964844 21.5 L 48.511719 21.5 L 48.511719 65.046875 L 4.964844 65.046875 Z M 4.964844 21.5 " clip-rule="nonzero"></path>
    </clipPath>
    <clipPath id="e090ae04f8">
      <path d="M 48.511719 43.273438 C 48.511719 31.246094 38.761719 21.5 26.738281 21.5 C 14.710938 21.5 4.964844 31.246094 4.964844 43.273438 C 4.964844 55.296875 14.710938 65.046875 26.738281 65.046875 C 38.761719 65.046875 48.511719 55.296875 48.511719 43.273438 Z M 48.511719 43.273438 " clip-rule="nonzero"></path>
    </clipPath>
    <clipPath id="f5d37abf3b">
      <path d="M 0.964844 0.5 L 44.511719 0.5 L 44.511719 44.046875 L 0.964844 44.046875 Z M 0.964844 0.5 " clip-rule="nonzero"></path>
    </clipPath>
    <clipPath id="63e3fe8ae4">
      <path d="M 44.511719 22.273438 C 44.511719 10.246094 34.761719 0.5 22.738281 0.5 C 10.710938 0.5 0.964844 10.246094 0.964844 22.273438 C 0.964844 34.296875 10.710938 44.046875 22.738281 44.046875 C 34.761719 44.046875 44.511719 34.296875 44.511719 22.273438 Z M 44.511719 22.273438 " clip-rule="nonzero"></path>
    </clipPath>
    <clipPath id="3ee4aa6862">
      <rect x="0" width="45" y="0" height="45"></rect>
    </clipPath>
    <clipPath id="00e7cd5c00">
      <path d="M 0.125 18.179688 L 53.386719 18.179688 L 53.386719 71.441406 L 0.125 71.441406 Z M 0.125 18.179688 " clip-rule="nonzero"></path>
    </clipPath>
    <clipPath id="32e9509532">
      <path d="M 62 0.703125 L 255.261719 0.703125 L 255.261719 65 L 62 65 Z M 62 0.703125 " clip-rule="nonzero"></path>
    </clipPath>
    <clipPath id="407286be50">
      <rect x="0" width="194" y="0" height="65"></rect>
    </clipPath>
    <clipPath id="163d4921bc">
      <path d="M 62 44 L 133 44 L 133 80.164062 L 62 80.164062 Z M 62 44 " clip-rule="nonzero"></path>
    </clipPath>
    <clipPath id="3bdce0d163">
      <rect x="0" width="71" y="0" height="37"></rect>
    </clipPath>
    <clipPath id="be55dd4fe9">
      <rect x="0" width="256" y="0" height="81"></rect>
    </clipPath>
  </defs>
  <g clip-path="url(#eca87dc93f)">
    <g transform="matrix(1, 0, 0, 1, 0.000000000000000028, 6)">
      <g clip-path="url(#be55dd4fe9)">
        <g clip-path="url(#e672a72950)">
          <g clip-path="url(#e090ae04f8)">
            <g transform="matrix(1, 0, 0, 1, 4, 21)">
              <g clip-path="url(#3ee4aa6862)">
                <g clip-path="url(#f5d37abf3b)">
                  <g clip-path="url(#63e3fe8ae4)">
                    <path fill="#000000" d="M 44.511719 0.5 L 44.511719 44.046875 L 0.964844 44.046875 L 0.964844 0.5 Z M 44.511719 0.5 " fill-opacity="1" fill-rule="nonzero"></path>
                  </g>
                </g>
              </g>
            </g>
          </g>
        </g>
        <g clip-path="url(#00e7cd5c00)">
          <path fill="#fbb900" d="M 26.808594 71.363281 C 41.480469 71.363281 53.414062 59.425781 53.414062 44.757812 C 53.414062 30.085938 41.480469 18.152344 26.808594 18.152344 C 12.136719 18.152344 0.203125 30.085938 0.203125 44.757812 C 0.203125 59.425781 12.136719 71.363281 26.808594 71.363281 Z M 26.847656 47.367188 C 25.453125 47.367188 24.324219 46.238281 24.324219 44.84375 C 24.324219 43.449219 25.453125 42.320312 26.847656 42.320312 L 39.980469 42.320312 C 41.375 42.320312 42.503906 43.449219 42.503906 44.84375 C 42.503906 46.238281 41.375 47.367188 39.980469 47.367188 Z M 26.765625 61.9375 C 17.292969 61.9375 9.585938 54.230469 9.585938 44.757812 C 9.585938 35.285156 17.292969 27.578125 26.765625 27.578125 C 31.355469 27.578125 35.671875 29.367188 38.917969 32.617188 C 39.410156 33.109375 39.65625 33.753906 39.65625 34.398438 C 39.65625 35.046875 39.410156 35.691406 38.914062 36.1875 C 37.929688 37.171875 36.332031 37.171875 35.34375 36.183594 C 33.054688 33.890625 30.007812 32.628906 26.765625 32.628906 C 20.078125 32.628906 14.636719 38.070312 14.636719 44.757812 C 14.636719 51.445312 20.078125 56.886719 26.765625 56.886719 C 30.003906 56.886719 33.050781 55.625 35.339844 53.335938 C 36.328125 52.347656 37.925781 52.351562 38.914062 53.335938 C 39.898438 54.324219 39.898438 55.921875 38.910156 56.90625 C 35.667969 60.152344 31.351562 61.9375 26.765625 61.9375 Z M 26.765625 61.9375 " fill-opacity="1" fill-rule="nonzero"></path>
        </g>
        <g clip-path="url(#32e9509532)">
          <g transform="matrix(1, 0, 0, 1, 62, -0.000000000000002665)">
            <g clip-path="url(#407286be50)">
              <g fill="#ffffff" fill-opacity="1">
                <g transform="translate(0.202608, 46.465457)">
                  <g>
                    <path d="M 16.90625 0 C 14.40625 0 12.171875 -0.332031 10.203125 -1 C 8.242188 -1.664062 6.582031 -2.625 5.21875 -3.875 C 3.863281 -5.125 2.828125 -6.597656 2.109375 -8.296875 C 1.390625 -9.992188 1.03125 -11.882812 1.03125 -13.96875 C 1.03125 -16.039062 1.390625 -17.925781 2.109375 -19.625 C 2.828125 -21.320312 3.867188 -22.796875 5.234375 -24.046875 C 6.609375 -25.296875 8.269531 -26.253906 10.21875 -26.921875 C 12.175781 -27.585938 14.40625 -27.921875 16.90625 -27.921875 L 21.140625 -27.921875 L 21.140625 -21.1875 L 17.1875 -21.1875 C 15.96875 -21.1875 14.890625 -21 13.953125 -20.625 C 13.023438 -20.25 12.253906 -19.734375 11.640625 -19.078125 C 11.035156 -18.429688 10.578125 -17.671875 10.265625 -16.796875 C 9.960938 -15.921875 9.8125 -14.976562 9.8125 -13.96875 C 9.8125 -12.957031 9.960938 -12.007812 10.265625 -11.125 C 10.578125 -10.25 11.035156 -9.484375 11.640625 -8.828125 C 12.253906 -8.179688 13.023438 -7.671875 13.953125 -7.296875 C 14.890625 -6.921875 15.96875 -6.734375 17.1875 -6.734375 L 21.140625 -6.734375 L 21.140625 0 Z M 16.90625 0 "></path>
                  </g>
                </g>
              </g>
              <g fill="#ffffff" fill-opacity="1">
                <g transform="translate(22.219757, 46.465457)">
                  <g>
                    <path d="M 13.28125 0 C 10.96875 0 8.90625 -0.394531 7.09375 -1.1875 C 5.289062 -1.988281 3.863281 -3.15625 2.8125 -4.6875 C 1.757812 -6.21875 1.234375 -8.085938 1.234375 -10.296875 C 1.234375 -12.710938 1.75 -14.71875 2.78125 -16.3125 C 3.820312 -17.90625 5.171875 -19.109375 6.828125 -19.921875 C 8.492188 -20.734375 10.25 -21.140625 12.09375 -21.140625 C 13.976562 -21.140625 15.671875 -20.742188 17.171875 -19.953125 C 18.671875 -19.171875 19.863281 -18.050781 20.75 -16.59375 C 21.644531 -15.132812 22.09375 -13.378906 22.09375 -11.328125 C 22.09375 -10.828125 22.066406 -10.25 22.015625 -9.59375 C 21.960938 -8.9375 21.882812 -8.382812 21.78125 -7.9375 L 9.09375 -7.9375 C 9.195312 -7.488281 9.394531 -7.109375 9.6875 -6.796875 C 9.976562 -6.492188 10.375 -6.273438 10.875 -6.140625 C 11.382812 -6.003906 11.960938 -5.9375 12.609375 -5.9375 L 19.984375 -5.9375 L 19.984375 0 Z M 8.734375 -12.171875 L 15.03125 -12.171875 C 15.03125 -12.484375 14.988281 -12.785156 14.90625 -13.078125 C 14.832031 -13.367188 14.707031 -13.640625 14.53125 -13.890625 C 14.363281 -14.148438 14.160156 -14.378906 13.921875 -14.578125 C 13.679688 -14.773438 13.394531 -14.925781 13.0625 -15.03125 C 12.726562 -15.144531 12.363281 -15.203125 11.96875 -15.203125 C 11.457031 -15.203125 11.007812 -15.117188 10.625 -14.953125 C 10.238281 -14.796875 9.910156 -14.582031 9.640625 -14.3125 C 9.378906 -14.050781 9.175781 -13.734375 9.03125 -13.359375 C 8.882812 -12.992188 8.785156 -12.597656 8.734375 -12.171875 Z M 8.734375 -12.171875 "></path>
                  </g>
                </g>
              </g>
              <g fill="#ffffff" fill-opacity="1">
                <g transform="translate(45.553149, 46.465457)">
                  <g>
                    <path d="M 1.640625 0 L 1.640625 -14.234375 C 1.640625 -16.203125 2.207031 -17.757812 3.34375 -18.90625 C 4.488281 -20.050781 6.085938 -20.625 8.140625 -20.625 L 14.765625 -20.625 L 14.765625 -14.84375 L 10.8125 -14.84375 C 10.351562 -14.84375 9.984375 -14.703125 9.703125 -14.421875 C 9.429688 -14.140625 9.296875 -13.773438 9.296875 -13.328125 L 9.296875 0 Z M 1.640625 0 "></path>
                  </g>
                </g>
              </g>
              <g fill="#ffffff" fill-opacity="1">
                <g transform="translate(60.869428, 46.465457)">
                  <g>
                    <path d="M 11.96875 0.515625 C 10.664062 0.515625 9.484375 0.195312 8.421875 -0.4375 C 7.359375 -1.070312 6.613281 -1.988281 6.1875 -3.1875 L 0.40625 -20.65625 L 8.8125 -20.65625 L 11.8125 -7.140625 C 11.832031 -7.035156 11.863281 -6.945312 11.90625 -6.875 C 11.945312 -6.8125 11.992188 -6.78125 12.046875 -6.78125 C 12.097656 -6.78125 12.144531 -6.8125 12.1875 -6.875 C 12.226562 -6.945312 12.257812 -7.035156 12.28125 -7.140625 L 15.28125 -20.65625 L 23.53125 -20.65625 L 17.75 -3.1875 C 17.320312 -1.988281 16.582031 -1.070312 15.53125 -0.4375 C 14.488281 0.195312 13.300781 0.515625 11.96875 0.515625 Z M 11.96875 0.515625 "></path>
                  </g>
                </g>
              </g>
              <g fill="#ffffff" fill-opacity="1">
                <g transform="translate(84.003362, 46.465457)">
                  <g>
                    <path d="M 10.375 0.515625 C 8.644531 0.515625 7.085938 0.078125 5.703125 -0.796875 C 4.316406 -1.671875 3.222656 -2.882812 2.421875 -4.4375 C 1.628906 -6 1.234375 -7.816406 1.234375 -9.890625 C 1.234375 -12.097656 1.722656 -14.046875 2.703125 -15.734375 C 3.691406 -17.421875 5.054688 -18.742188 6.796875 -19.703125 C 8.546875 -20.660156 10.578125 -21.140625 12.890625 -21.140625 C 15.148438 -21.140625 17.113281 -20.679688 18.78125 -19.765625 C 20.457031 -18.847656 21.769531 -17.570312 22.71875 -15.9375 C 23.664062 -14.300781 24.140625 -12.40625 24.140625 -10.25 L 24.140625 0 L 16.875 0 L 16.875 -3.078125 L 16.640625 -3.078125 C 16.285156 -2.359375 15.820312 -1.722656 15.25 -1.171875 C 14.6875 -0.628906 14.003906 -0.210938 13.203125 0.078125 C 12.398438 0.367188 11.457031 0.515625 10.375 0.515625 Z M 12.71875 -6.1875 C 13.4375 -6.1875 14.066406 -6.359375 14.609375 -6.703125 C 15.160156 -7.046875 15.585938 -7.53125 15.890625 -8.15625 C 16.203125 -8.78125 16.359375 -9.492188 16.359375 -10.296875 C 16.359375 -11.066406 16.203125 -11.742188 15.890625 -12.328125 C 15.585938 -12.910156 15.160156 -13.375 14.609375 -13.71875 C 14.066406 -14.0625 13.4375 -14.234375 12.71875 -14.234375 C 12.03125 -14.234375 11.40625 -14.0625 10.84375 -13.71875 C 10.289062 -13.375 9.859375 -12.910156 9.546875 -12.328125 C 9.242188 -11.742188 9.09375 -11.066406 9.09375 -10.296875 C 9.09375 -9.492188 9.242188 -8.78125 9.546875 -8.15625 C 9.859375 -7.53125 10.289062 -7.046875 10.84375 -6.703125 C 11.40625 -6.359375 12.03125 -6.1875 12.71875 -6.1875 Z M 12.71875 -6.1875 "></path>
                  </g>
                </g>
              </g>
              <g fill="#ffffff" fill-opacity="1">
                <g transform="translate(109.849581, 46.465457)">
                  <g>
                    <path d="M 1.640625 0 L 1.640625 -14.234375 C 1.640625 -16.203125 2.207031 -17.757812 3.34375 -18.90625 C 4.488281 -20.050781 6.085938 -20.625 8.140625 -20.625 L 14.765625 -20.625 L 14.765625 -14.84375 L 10.8125 -14.84375 C 10.351562 -14.84375 9.984375 -14.703125 9.703125 -14.421875 C 9.429688 -14.140625 9.296875 -13.773438 9.296875 -13.328125 L 9.296875 0 Z M 1.640625 0 "></path>
                  </g>
                </g>
              </g>
              <g fill="#ffffff" fill-opacity="1">
                <g transform="translate(125.16586, 46.465457)">
                  <g>
                    <path d="M 13.28125 0 C 10.96875 0 8.90625 -0.394531 7.09375 -1.1875 C 5.289062 -1.988281 3.863281 -3.15625 2.8125 -4.6875 C 1.757812 -6.21875 1.234375 -8.085938 1.234375 -10.296875 C 1.234375 -12.710938 1.75 -14.71875 2.78125 -16.3125 C 3.820312 -17.90625 5.171875 -19.109375 6.828125 -19.921875 C 8.492188 -20.734375 10.25 -21.140625 12.09375 -21.140625 C 13.976562 -21.140625 15.671875 -20.742188 17.171875 -19.953125 C 18.671875 -19.171875 19.863281 -18.050781 20.75 -16.59375 C 21.644531 -15.132812 22.09375 -13.378906 22.09375 -11.328125 C 22.09375 -10.828125 22.066406 -10.25 22.015625 -9.59375 C 21.960938 -8.9375 21.882812 -8.382812 21.78125 -7.9375 L 9.09375 -7.9375 C 9.195312 -7.488281 9.394531 -7.109375 9.6875 -6.796875 C 9.976562 -6.492188 10.375 -6.273438 10.875 -6.140625 C 11.382812 -6.003906 11.960938 -5.9375 12.609375 -5.9375 L 19.984375 -5.9375 L 19.984375 0 Z M 8.734375 -12.171875 L 15.03125 -12.171875 C 15.03125 -12.484375 14.988281 -12.785156 14.90625 -13.078125 C 14.832031 -13.367188 14.707031 -13.640625 14.53125 -13.890625 C 14.363281 -14.148438 14.160156 -14.378906 13.921875 -14.578125 C 13.679688 -14.773438 13.394531 -14.925781 13.0625 -15.03125 C 12.726562 -15.144531 12.363281 -15.203125 11.96875 -15.203125 C 11.457031 -15.203125 11.007812 -15.117188 10.625 -14.953125 C 10.238281 -14.796875 9.910156 -14.582031 9.640625 -14.3125 C 9.378906 -14.050781 9.175781 -13.734375 9.03125 -13.359375 C 8.882812 -12.992188 8.785156 -12.597656 8.734375 -12.171875 Z M 8.734375 -12.171875 "></path>
                  </g>
                </g>
              </g>
              <g fill="#ffffff" fill-opacity="1">
                <g transform="translate(148.499252, 46.465457)">
                  <g>
                    <path d="M 1.71875 0 L 1.71875 -5.421875 L 11.375 -5.421875 C 11.582031 -5.421875 11.753906 -5.46875 11.890625 -5.5625 C 12.023438 -5.65625 12.128906 -5.773438 12.203125 -5.921875 C 12.285156 -6.066406 12.328125 -6.21875 12.328125 -6.375 C 12.328125 -6.539062 12.285156 -6.695312 12.203125 -6.84375 C 12.128906 -6.988281 12.023438 -7.097656 11.890625 -7.171875 C 11.753906 -7.253906 11.582031 -7.296875 11.375 -7.296875 L 8.25 -7.296875 C 6.894531 -7.296875 5.660156 -7.53125 4.546875 -8 C 3.429688 -8.46875 2.546875 -9.195312 1.890625 -10.1875 C 1.242188 -11.1875 0.921875 -12.472656 0.921875 -14.046875 C 0.921875 -15.265625 1.21875 -16.375 1.8125 -17.375 C 2.414062 -18.375 3.234375 -19.171875 4.265625 -19.765625 C 5.304688 -20.359375 6.453125 -20.65625 7.703125 -20.65625 L 18.1875 -20.65625 L 18.1875 -15.234375 L 9.5 -15.234375 C 9.226562 -15.234375 9.003906 -15.140625 8.828125 -14.953125 C 8.660156 -14.773438 8.578125 -14.566406 8.578125 -14.328125 C 8.578125 -14.085938 8.660156 -13.875 8.828125 -13.6875 C 9.003906 -13.5 9.226562 -13.40625 9.5 -13.40625 L 12.359375 -13.40625 C 13.910156 -13.40625 15.25 -13.171875 16.375 -12.703125 C 17.507812 -12.234375 18.378906 -11.507812 18.984375 -10.53125 C 19.597656 -9.550781 19.90625 -8.273438 19.90625 -6.703125 C 19.90625 -5.472656 19.59375 -4.351562 18.96875 -3.34375 C 18.34375 -2.332031 17.507812 -1.519531 16.46875 -0.90625 C 15.4375 -0.300781 14.269531 0 12.96875 0 Z M 1.71875 0 "></path>
                  </g>
                </g>
              </g>
              <g fill="#ffffff" fill-opacity="1">
                <g transform="translate(169.279931, 46.465457)">
                  <g>
                    <path d="M 13.28125 0 C 10.96875 0 8.90625 -0.394531 7.09375 -1.1875 C 5.289062 -1.988281 3.863281 -3.15625 2.8125 -4.6875 C 1.757812 -6.21875 1.234375 -8.085938 1.234375 -10.296875 C 1.234375 -12.710938 1.75 -14.71875 2.78125 -16.3125 C 3.820312 -17.90625 5.171875 -19.109375 6.828125 -19.921875 C 8.492188 -20.734375 10.25 -21.140625 12.09375 -21.140625 C 13.976562 -21.140625 15.671875 -20.742188 17.171875 -19.953125 C 18.671875 -19.171875 19.863281 -18.050781 20.75 -16.59375 C 21.644531 -15.132812 22.09375 -13.378906 22.09375 -11.328125 C 22.09375 -10.828125 22.066406 -10.25 22.015625 -9.59375 C 21.960938 -8.9375 21.882812 -8.382812 21.78125 -7.9375 L 9.09375 -7.9375 C 9.195312 -7.488281 9.394531 -7.109375 9.6875 -6.796875 C 9.976562 -6.492188 10.375 -6.273438 10.875 -6.140625 C 11.382812 -6.003906 11.960938 -5.9375 12.609375 -5.9375 L 19.984375 -5.9375 L 19.984375 0 Z M 8.734375 -12.171875 L 15.03125 -12.171875 C 15.03125 -12.484375 14.988281 -12.785156 14.90625 -13.078125 C 14.832031 -13.367188 14.707031 -13.640625 14.53125 -13.890625 C 14.363281 -14.148438 14.160156 -14.378906 13.921875 -14.578125 C 13.679688 -14.773438 13.394531 -14.925781 13.0625 -15.03125 C 12.726562 -15.144531 12.363281 -15.203125 11.96875 -15.203125 C 11.457031 -15.203125 11.007812 -15.117188 10.625 -14.953125 C 10.238281 -14.796875 9.910156 -14.582031 9.640625 -14.3125 C 9.378906 -14.050781 9.175781 -13.734375 9.03125 -13.359375 C 8.882812 -12.992188 8.785156 -12.597656 8.734375 -12.171875 Z M 8.734375 -12.171875 "></path>
                  </g>
                </g>
              </g>
            </g>
          </g>
        </g>
        <g clip-path="url(#163d4921bc)">
          <g transform="matrix(1, 0, 0, 1, 62, 44)">
            <g clip-path="url(#3bdce0d163)">
              <g fill="#ffffff" fill-opacity="1">
                <g transform="translate(0.950548, 25.565462)">
                  <g>
                    <path d="M 8.78125 0.28125 C 7.550781 0.28125 6.4375 0.078125 5.4375 -0.328125 C 4.445312 -0.734375 3.59375 -1.300781 2.875 -2.03125 C 2.15625 -2.769531 1.601562 -3.617188 1.21875 -4.578125 C 0.832031 -5.546875 0.640625 -6.585938 0.640625 -7.703125 C 0.640625 -8.816406 0.832031 -9.851562 1.21875 -10.8125 C 1.601562 -11.78125 2.148438 -12.625 2.859375 -13.34375 C 3.566406 -14.070312 4.421875 -14.632812 5.421875 -15.03125 C 6.429688 -15.4375 7.550781 -15.640625 8.78125 -15.640625 C 9.988281 -15.640625 11.09375 -15.4375 12.09375 -15.03125 C 13.09375 -14.632812 13.945312 -14.070312 14.65625 -13.34375 C 15.375 -12.625 15.925781 -11.773438 16.3125 -10.796875 C 16.707031 -9.828125 16.90625 -8.796875 16.90625 -7.703125 C 16.90625 -6.585938 16.707031 -5.546875 16.3125 -4.578125 C 15.925781 -3.617188 15.375 -2.769531 14.65625 -2.03125 C 13.945312 -1.300781 13.09375 -0.734375 12.09375 -0.328125 C 11.09375 0.078125 9.988281 0.28125 8.78125 0.28125 Z M 8.78125 -2.859375 C 9.414062 -2.859375 10.007812 -2.976562 10.5625 -3.21875 C 11.113281 -3.457031 11.582031 -3.796875 11.96875 -4.234375 C 12.363281 -4.671875 12.671875 -5.1875 12.890625 -5.78125 C 13.117188 -6.375 13.234375 -7.015625 13.234375 -7.703125 C 13.234375 -8.390625 13.117188 -9.023438 12.890625 -9.609375 C 12.671875 -10.191406 12.363281 -10.703125 11.96875 -11.140625 C 11.582031 -11.578125 11.113281 -11.914062 10.5625 -12.15625 C 10.007812 -12.40625 9.414062 -12.53125 8.78125 -12.53125 C 8.113281 -12.53125 7.507812 -12.40625 6.96875 -12.15625 C 6.4375 -11.914062 5.96875 -11.578125 5.5625 -11.140625 C 5.15625 -10.703125 4.847656 -10.1875 4.640625 -9.59375 C 4.429688 -9 4.328125 -8.367188 4.328125 -7.703125 C 4.328125 -7.015625 4.429688 -6.375 4.640625 -5.78125 C 4.847656 -5.1875 5.15625 -4.671875 5.5625 -4.234375 C 5.96875 -3.796875 6.4375 -3.457031 6.96875 -3.21875 C 7.507812 -2.976562 8.113281 -2.859375 8.78125 -2.859375 Z M 8.78125 -2.859375 "></path>
                  </g>
                </g>
              </g>
              <g fill="#ffffff" fill-opacity="1">
                <g transform="translate(18.477126, 25.565462)">
                  <g>
                    <path d="M 1.265625 0 L 1.265625 -6.46875 C 1.265625 -7.40625 1.488281 -8.253906 1.9375 -9.015625 C 2.394531 -9.773438 3.046875 -10.378906 3.890625 -10.828125 C 4.734375 -11.285156 5.734375 -11.515625 6.890625 -11.515625 C 8.054688 -11.515625 9.050781 -11.285156 9.875 -10.828125 C 10.707031 -10.378906 11.34375 -9.773438 11.78125 -9.015625 C 12.21875 -8.253906 12.4375 -7.40625 12.4375 -6.46875 L 12.4375 0 L 9.03125 0 L 9.03125 -6.390625 C 9.03125 -6.773438 8.9375 -7.132812 8.75 -7.46875 C 8.5625 -7.800781 8.300781 -8.066406 7.96875 -8.265625 C 7.644531 -8.460938 7.273438 -8.5625 6.859375 -8.5625 C 6.441406 -8.5625 6.066406 -8.460938 5.734375 -8.265625 C 5.410156 -8.066406 5.148438 -7.800781 4.953125 -7.46875 C 4.765625 -7.132812 4.671875 -6.773438 4.671875 -6.390625 L 4.671875 0 Z M 1.265625 0 "></path>
                  </g>
                </g>
              </g>
              <g fill="#ffffff" fill-opacity="1">
                <g transform="translate(32.186904, 25.565462)">
                  <g>
                    <path d="M 1.265625 0 L 1.265625 -16.015625 L 4.671875 -16.015625 L 4.671875 0 Z M 1.265625 0 "></path>
                  </g>
                </g>
              </g>
              <g fill="#ffffff" fill-opacity="1">
                <g transform="translate(38.109533, 25.565462)">
                  <g>
                    <path d="M 1.265625 0 L 1.265625 -11.25 L 4.6875 -11.25 L 4.6875 0 Z M 2.984375 -12.53125 C 2.441406 -12.53125 1.972656 -12.722656 1.578125 -13.109375 C 1.179688 -13.503906 0.984375 -13.972656 0.984375 -14.515625 C 0.984375 -15.054688 1.179688 -15.53125 1.578125 -15.9375 C 1.972656 -16.34375 2.441406 -16.546875 2.984375 -16.546875 C 3.523438 -16.546875 3.992188 -16.34375 4.390625 -15.9375 C 4.785156 -15.53125 4.984375 -15.054688 4.984375 -14.515625 C 4.984375 -13.972656 4.785156 -13.503906 4.390625 -13.109375 C 3.992188 -12.722656 3.523438 -12.53125 2.984375 -12.53125 Z M 2.984375 -12.53125 "></path>
                  </g>
                </g>
              </g>
              <g fill="#ffffff" fill-opacity="1">
                <g transform="translate(44.032163, 25.565462)">
                  <g>
                    <path d="M 1.265625 0 L 1.265625 -6.46875 C 1.265625 -7.40625 1.488281 -8.253906 1.9375 -9.015625 C 2.394531 -9.773438 3.046875 -10.378906 3.890625 -10.828125 C 4.734375 -11.285156 5.734375 -11.515625 6.890625 -11.515625 C 8.054688 -11.515625 9.050781 -11.285156 9.875 -10.828125 C 10.707031 -10.378906 11.34375 -9.773438 11.78125 -9.015625 C 12.21875 -8.253906 12.4375 -7.40625 12.4375 -6.46875 L 12.4375 0 L 9.03125 0 L 9.03125 -6.390625 C 9.03125 -6.773438 8.9375 -7.132812 8.75 -7.46875 C 8.5625 -7.800781 8.300781 -8.066406 7.96875 -8.265625 C 7.644531 -8.460938 7.273438 -8.5625 6.859375 -8.5625 C 6.441406 -8.5625 6.066406 -8.460938 5.734375 -8.265625 C 5.410156 -8.066406 5.148438 -7.800781 4.953125 -7.46875 C 4.765625 -7.132812 4.671875 -6.773438 4.671875 -6.390625 L 4.671875 0 Z M 1.265625 0 "></path>
                  </g>
                </g>
              </g>
              <g fill="#ffffff" fill-opacity="1">
                <g transform="translate(57.74194, 25.565462)">
                  <g>
                    <path d="M 7.15625 0 C 5.882812 0 4.765625 -0.234375 3.796875 -0.703125 C 2.828125 -1.179688 2.078125 -1.84375 1.546875 -2.6875 C 1.015625 -3.53125 0.75 -4.503906 0.75 -5.609375 C 0.75 -6.835938 1.003906 -7.890625 1.515625 -8.765625 C 2.023438 -9.648438 2.707031 -10.328125 3.5625 -10.796875 C 4.414062 -11.273438 5.363281 -11.515625 6.40625 -11.515625 C 7.59375 -11.515625 8.582031 -11.265625 9.375 -10.765625 C 10.175781 -10.273438 10.78125 -9.597656 11.1875 -8.734375 C 11.59375 -7.878906 11.796875 -6.90625 11.796875 -5.8125 C 11.796875 -5.625 11.785156 -5.398438 11.765625 -5.140625 C 11.742188 -4.890625 11.71875 -4.691406 11.6875 -4.546875 L 4.328125 -4.546875 C 4.410156 -4.160156 4.578125 -3.835938 4.828125 -3.578125 C 5.078125 -3.316406 5.390625 -3.125 5.765625 -3 C 6.148438 -2.875 6.578125 -2.8125 7.046875 -2.8125 L 10.484375 -2.8125 L 10.484375 0 Z M 4.234375 -6.671875 L 8.515625 -6.671875 C 8.484375 -6.898438 8.4375 -7.125 8.375 -7.34375 C 8.320312 -7.5625 8.234375 -7.753906 8.109375 -7.921875 C 7.984375 -8.097656 7.835938 -8.25 7.671875 -8.375 C 7.515625 -8.5 7.328125 -8.597656 7.109375 -8.671875 C 6.898438 -8.742188 6.664062 -8.78125 6.40625 -8.78125 C 6.070312 -8.78125 5.769531 -8.71875 5.5 -8.59375 C 5.238281 -8.476562 5.019531 -8.320312 4.84375 -8.125 C 4.664062 -7.925781 4.53125 -7.695312 4.4375 -7.4375 C 4.34375 -7.1875 4.273438 -6.929688 4.234375 -6.671875 Z M 4.234375 -6.671875 "></path>
                  </g>
                </g>
              </g>
            </g>
          </g>
        </g>
      </g>
    </g>
  </g>
</svg>
